<svg width="64" height="64" viewBox="0 0 64 64" fill="none" xmlns="http://www.w3.org/2000/svg">
<path d="M18.24 12.6338C18.5311 11.1717 19.2376 9.82454 20.2748 8.75371C21.312 7.68287 22.6359 6.93375 24.088 6.59606C25.54 6.25838 27.0586 6.34646 28.4619 6.84975C29.8651 7.35303 31.0935 8.25019 32 9.43376C32.9064 8.25019 34.1348 7.35303 35.5381 6.84975C36.9414 6.34646 38.46 6.25838 39.912 6.59606C41.364 6.93375 42.6879 7.68287 43.7251 8.75371C44.7623 9.82454 45.4688 11.1717 45.76 12.6338L46.16 14.6402L47.4592 14.8994C49.416 15.2919 51.1766 16.3497 52.4419 17.8933C53.7072 19.4368 54.399 21.3707 54.4 23.3666V24.0002C54.4 26.3234 53.408 28.4162 51.824 29.8786C53.7587 30.8373 55.3469 32.3747 56.3678 34.2774C57.3887 36.1801 57.7916 38.3535 57.5207 40.4957C57.2498 42.6379 56.3184 44.6425 54.8559 46.2311C53.3934 47.8197 51.4725 48.9133 49.36 49.3602L49.2416 49.9522C48.8729 51.7969 47.9656 53.4909 46.6343 54.8201C45.303 56.1492 43.6076 57.0539 41.7623 57.4197C39.9169 57.7854 38.0046 57.5959 36.267 56.8751C34.5294 56.1542 33.0445 54.9344 32 53.3698C30.9555 54.9344 29.4706 56.1542 27.733 56.8751C25.9953 57.5959 24.083 57.7854 22.2377 57.4197C20.3924 57.0539 18.6969 56.1492 17.3657 54.8201C16.0344 53.4909 15.1271 51.7969 14.7584 49.9522L14.64 49.3602C12.5274 48.9133 10.6065 47.8197 9.14406 46.2311C7.68159 44.6425 6.75019 42.6379 6.47925 40.4957C6.20831 38.3535 6.61128 36.1801 7.63218 34.2774C8.65308 32.3747 10.2412 30.8373 12.176 29.8786C11.364 29.1296 10.716 28.2207 10.2726 27.209C9.8293 26.1973 9.60026 25.1047 9.59998 24.0002V23.3666C9.60091 21.3707 10.2928 19.4368 11.558 17.8933C12.8233 16.3497 14.5839 15.2919 16.5408 14.8994L17.84 14.6434L18.24 12.6338ZM46.4 32.0002C45.9756 32.0002 45.5687 31.8316 45.2686 31.5315C44.9685 31.2315 44.8 30.8245 44.8 30.4002C44.8 29.9758 44.9685 29.5688 45.2686 29.2688C45.5687 28.9687 45.9756 28.8002 46.4 28.8002C47.673 28.8002 48.8939 28.2944 49.7941 27.3943C50.6943 26.4941 51.2 25.2732 51.2 24.0002V23.3666C51.2 20.7746 49.3728 18.5474 46.832 18.0386L44.4864 17.5682C44.1769 17.5061 43.8926 17.3539 43.6694 17.1307C43.4462 16.9075 43.294 16.6233 43.232 16.3138L42.6208 13.261C42.4013 12.1504 41.7761 11.1614 40.8669 10.4868C39.9578 9.81223 38.83 9.5005 37.7035 9.61239C36.577 9.72428 35.5325 10.2518 34.7739 11.092C34.0152 11.9322 33.5967 13.0249 33.6 14.157V48.0866C33.6026 49.6514 34.1863 51.1596 35.2379 52.3185C36.2895 53.4774 37.734 54.2045 39.2912 54.3587C40.8485 54.513 42.4076 54.0834 43.6661 53.1533C44.9245 52.2232 45.7928 50.8589 46.1024 49.325L46.432 47.6866C46.494 47.377 46.6462 47.0928 46.8694 46.8696C47.0926 46.6464 47.3769 46.4942 47.6864 46.4322L48.6176 46.2434C50.3632 45.8888 51.9151 44.8992 52.973 43.4662C54.0309 42.0332 54.5196 40.2586 54.3443 38.486C54.1691 36.7135 53.3425 35.0689 52.0245 33.8708C50.7065 32.6726 48.9908 32.0061 47.2096 32.0002H46.4ZM30.4 44.8002V14.1506C30.4025 13.0188 29.9834 11.9266 29.2245 11.087C28.4655 10.2474 27.4211 9.72054 26.2949 9.60907C25.1686 9.49761 24.0412 9.80955 23.1324 10.4841C22.2236 11.1586 21.5986 12.1475 21.3792 13.2578L20.7712 16.3106C20.7089 16.6205 20.5563 16.905 20.3324 17.1283C20.1086 17.3516 19.8237 17.5035 19.5136 17.565L17.168 18.0354C15.9363 18.2829 14.8282 18.9492 14.032 19.921C13.2358 20.8928 12.8005 22.1102 12.8 23.3666V24.0002C12.8 25.2732 13.3057 26.4941 14.2059 27.3943C15.106 28.2944 16.3269 28.8002 17.6 28.8002C18.0243 28.8002 18.4313 28.9687 18.7313 29.2688C19.0314 29.5688 19.2 29.9758 19.2 30.4002C19.2 30.8245 19.0314 31.2315 18.7313 31.5315C18.4313 31.8316 18.0243 32.0002 17.6 32.0002H16.7936C15.0121 32.0053 13.2959 32.6713 11.9773 33.8692C10.6587 35.0671 9.83146 36.7117 9.65582 38.4845C9.48017 40.2573 9.96859 42.0322 11.0265 43.4655C12.0844 44.8989 13.6365 45.8887 15.3824 46.2434L16.3136 46.4322C16.6231 46.4942 16.9073 46.6464 17.1305 46.8696C17.3538 47.0928 17.5059 47.377 17.568 47.6866L17.8976 49.325C18.2072 50.8589 19.0754 52.2232 20.3339 53.1533C21.5924 54.0834 23.1515 54.513 24.7087 54.3587C26.266 54.2045 27.7105 53.4774 28.7621 52.3185C29.8136 51.1596 30.3973 49.6514 30.4 48.0866V44.8002Z" fill="white"/>
</svg>
