<svg width="64" height="64" viewBox="0 0 64 64" fill="none" xmlns="http://www.w3.org/2000/svg">
<path d="M31.5946 32.4055L32.1226 32.5895C40.816 35.5815 51.28 32.7202 58.6666 25.3335M31.5946 32.4055L30.1066 31.8962C21.9946 29.1015 12.2266 31.7735 5.33331 38.6668M31.5946 32.4055L31.4106 31.8775C28.4186 23.1842 31.28 12.7202 38.6666 5.3335M31.5946 32.4055L32.104 33.8935C34.8986 42.0028 32.2266 51.7735 25.3333 58.6668M26.6666 40.0002L31.5813 45.1255ZM18.04 31.5815L21.3333 34.8802ZM31.584 18.0402L37.3333 24.0002ZM42.6666 29.3335L45.1253 31.5815ZM10.6666 34.6668L20 44.0002ZM52.7413 29.0402L43.408 19.7068ZM24.8133 48.5095L29.0453 52.7415ZM38.8986 14.8988L34.6666 10.6668Z" fill="white"/>
<path d="M31.5946 32.4055L32.1226 32.5895C40.816 35.5815 51.28 32.7202 58.6666 25.3335M31.5946 32.4055L30.1066 31.8962C21.9946 29.1015 12.2266 31.7735 5.33331 38.6668M31.5946 32.4055L31.4106 31.8775C28.4186 23.1842 31.28 12.7202 38.6666 5.3335M31.5946 32.4055L32.104 33.8935C34.8986 42.0028 32.2266 51.7735 25.3333 58.6668M26.6666 40.0002L31.5813 45.1255M18.04 31.5815L21.3333 34.8802M31.584 18.0402L37.3333 24.0002M42.6666 29.3335L45.1253 31.5815M10.6666 34.6668L20 44.0002M52.7413 29.0402L43.408 19.7068M24.8133 48.5095L29.0453 52.7415M38.8986 14.8988L34.6666 10.6668" stroke="white" stroke-width="1.5" stroke-linecap="round"/>
</svg>
