<svg width="64" height="64" viewBox="0 0 64 64" fill="none" xmlns="http://www.w3.org/2000/svg">
<path fill-rule="evenodd" clip-rule="evenodd" d="M22.1986 12.4347L22.272 12.1147C22.412 11.5201 22.6413 10.6454 23.1146 9.78407C23.5973 8.90674 24.3453 8.0174 25.5186 7.43207C26.688 6.8494 28.1533 6.63207 29.9653 6.87207C31.9653 7.13874 35.9826 7.80007 39.532 9.6054C43.1013 11.4214 46.4453 14.5454 46.4453 19.7481C46.4453 22.4361 45.4053 25.3201 44.3973 27.2001C43.9133 28.1041 43.3386 28.9681 42.7626 29.4334C42.6306 29.5401 42.4426 29.6734 42.2093 29.7667C41.5693 31.8702 40.2952 33.7245 38.5613 35.0764C36.8273 36.4282 34.7182 37.2116 32.5222 37.3192C30.3262 37.4269 28.1505 36.8537 26.2927 35.678C24.4348 34.5023 22.9854 32.7814 22.1426 30.7507L22.1106 30.7561L21.6373 30.1814L21.636 30.1787L21.6333 30.1761L21.6266 30.1667L21.604 30.1401C21.49 29.998 21.3801 29.8526 21.2746 29.7041C20.9874 29.3043 20.7161 28.8933 20.4613 28.4721C19.8346 27.4347 19.0786 25.9574 18.5946 24.2334C18.112 22.5094 17.8906 20.4881 18.3973 18.4027C18.8906 16.3734 20.0546 14.3761 22.1626 12.5921L22.1986 12.4347ZM24.4386 29.2854C25.0169 30.9484 26.1274 32.3743 27.5981 33.3423C29.0688 34.3103 30.8176 34.7664 32.5737 34.6399C34.3298 34.5134 35.9952 33.8114 37.312 32.6426C38.6287 31.4738 39.5234 29.9034 39.8573 28.1747L40.008 28.2254C40.0021 28.15 39.9994 28.0744 40 27.9987C40 25.7921 39.6933 24.2521 39.408 23.2921C39.352 23.1053 39.2902 22.9203 39.2226 22.7374L39.168 22.7401H39.1146C38.1176 22.7615 37.1209 22.6856 36.1386 22.5134C33.8493 22.1267 30.7493 21.1614 27.0986 18.9254C27.0186 19.1041 26.9386 19.3054 26.8586 19.5294C26.5973 20.2694 26.3826 21.1481 26.1973 22.0761C26.0333 22.8934 25.8986 23.7161 25.7706 24.4867L25.7213 24.7907C25.584 25.6174 25.4466 26.4294 25.2866 27.0174C25.0066 28.0387 24.7213 28.7641 24.4386 29.2841M22.572 26.8001C21.9704 25.766 21.4975 24.6623 21.164 23.5134C20.7653 22.0921 20.6186 20.5534 20.9893 19.0321C21.3493 17.5521 22.22 15.9961 24.0106 14.5214C24.3333 14.3027 24.48 14.0094 24.52 13.9307V13.9294C24.5894 13.785 24.6456 13.6346 24.688 13.4801C24.7306 13.3281 24.7773 13.1201 24.8213 12.9334L24.868 12.7241C24.9946 12.1867 25.1586 11.6014 25.452 11.0667C25.7373 10.5494 26.128 10.1067 26.7093 9.8174C27.2933 9.5254 28.1973 9.3254 29.6133 9.51474C31.5506 9.77207 35.1946 10.3894 38.3226 11.9814C41.4293 13.5614 43.7786 15.9534 43.7786 19.7467C43.7786 21.4934 43.192 23.4801 42.4853 25.0467C42.352 24.0254 42.16 23.1907 41.9626 22.5294C41.8236 22.0572 41.6521 21.5952 41.4493 21.1467C41.3716 20.9811 41.2871 20.8187 41.196 20.6601L41.1733 20.6241L41.1653 20.6107L41.1613 20.6041L41.1586 20.6001L40.6653 19.8347L39.7826 20.0121L39.764 20.0161L39.6346 20.0334C39.4362 20.0557 39.2369 20.069 39.0373 20.0734C38.2152 20.0892 37.3936 20.0249 36.584 19.8814C34.4333 19.5187 31.2733 18.5307 27.4346 15.9747L26.5013 15.3521L25.7293 16.1654C25.0933 16.8347 24.6613 17.7481 24.3453 18.6374C24.0226 19.5507 23.7786 20.5707 23.5826 21.5494C23.4201 22.3822 23.2725 23.2179 23.14 24.0561L23.0893 24.3547C22.9466 25.2227 22.8306 25.8854 22.7133 26.3147C22.6653 26.4916 22.6182 26.6534 22.572 26.8001Z" fill="white"/>
<path fill-rule="evenodd" clip-rule="evenodd" d="M23.8853 38.4736C23.6027 37.9109 23.2547 37.2163 22.6667 37.3509C15.4613 38.9909 8 43.7256 8 48.7603V56.0003H56V48.7603C56 44.7949 51.3707 41.0149 45.884 38.7869L45.8773 38.7736L45.8587 38.7376L45.8147 38.7589C44.3573 38.1723 42.84 37.6923 41.3333 37.3509C40.6627 37.1976 39.9693 38.1203 39.6667 38.6976H24L23.8853 38.4736ZM41.8707 40.2336C42.4538 40.3954 43.032 40.5763 43.6053 40.7763C43.6213 41.2323 43.5867 41.7709 43.512 42.3203C43.4365 42.8891 43.3152 43.4509 43.1493 44.0003H41.3333C41.0858 44.0004 40.8432 44.0694 40.6326 44.1997C40.4221 44.3299 40.252 44.5162 40.1413 44.7376L38.808 47.4043C38.7153 47.5893 38.6669 47.7933 38.6667 48.0003V50.6669C38.6667 51.0206 38.8071 51.3597 39.0572 51.6097C39.3072 51.8598 39.6464 52.0003 40 52.0003H42.6667V49.3336H41.3333V48.3149L42.1573 46.6669H45.8427L46.6667 48.3149V49.3336H45.3333V52.0003H48C48.3536 52.0003 48.6928 51.8598 48.9428 51.6097C49.1929 51.3597 49.3333 51.0206 49.3333 50.6669V48.0003C49.3331 47.7933 49.2847 47.5893 49.192 47.4043L47.8587 44.7376C47.748 44.5162 47.5779 44.3299 47.3674 44.1997C47.1568 44.0694 46.9142 44.0004 46.6667 44.0003H45.912C46.0751 43.2943 46.1856 42.5772 46.2427 41.8549C47.5427 42.4696 48.7507 43.1749 49.7973 43.9376C52.36 45.8069 53.3333 47.5563 53.3333 48.7603V53.3336H10.6667V48.7603C10.6667 47.5563 11.64 45.8069 14.2027 43.9376C15.4907 42.9976 17.028 42.1469 18.676 41.4429C18.722 42.5054 18.8925 43.5588 19.184 44.5816L19.1947 44.6189C18.3976 45.1232 17.8043 45.893 17.5196 46.7922C17.235 47.6915 17.2773 48.6624 17.6391 49.5335C18.0009 50.4046 18.6589 51.1198 19.4968 51.5528C20.3348 51.9859 21.2988 52.1089 22.2186 51.9001C23.1385 51.6913 23.9549 51.1641 24.5238 50.4118C25.0927 49.6594 25.3774 48.7302 25.3276 47.7883C25.2778 46.8463 24.8968 45.9523 24.2518 45.2641C23.6068 44.5758 22.7394 44.1376 21.8027 44.0269L21.744 43.8349C21.603 43.3383 21.4983 42.8321 21.4307 42.3203C21.3559 41.8034 21.3247 41.2811 21.3373 40.7589C21.3418 40.6469 21.3484 40.5474 21.3573 40.4603C21.5173 40.4105 21.6773 40.3629 21.8373 40.3176L22.3907 41.3656H41.276L41.8707 40.2336ZM21.3333 49.3549C22.0507 49.3549 22.6667 48.7683 22.6667 48.0016C22.6667 47.2363 22.0507 46.6483 21.3333 46.6483C20.616 46.6483 20 47.2349 20 48.0016C20 48.7669 20.616 49.3549 21.3333 49.3549Z" fill="white"/>
</svg>
