<svg width="64" height="64" viewBox="0 0 64 64" fill="none" xmlns="http://www.w3.org/2000/svg">
<path d="M49.16 17.24H45.3467V14.84C45.3467 13.0719 44.6443 11.3762 43.394 10.126C42.1438 8.87572 40.4481 8.17334 38.68 8.17334H25.3467C23.5786 8.17334 21.8829 8.87572 20.6326 10.126C19.3824 11.3762 18.68 13.0719 18.68 14.84V17.24H14.84C13.0719 17.24 11.3762 17.9424 10.126 19.1926C8.87572 20.4429 8.17334 22.1386 8.17334 23.9067V49.16C8.17334 50.9281 8.87572 52.6238 10.126 53.8741C11.3762 55.1243 13.0719 55.8267 14.84 55.8267H49.16C50.0355 55.8267 50.9024 55.6542 51.7112 55.3192C52.5201 54.9842 53.255 54.4931 53.8741 53.8741C54.4931 53.255 54.9842 52.5201 55.3192 51.7112C55.6542 50.9024 55.8267 50.0355 55.8267 49.16V23.9067C55.8267 23.0312 55.6542 22.1643 55.3192 21.3555C54.9842 20.5466 54.4931 19.8117 53.8741 19.1926C53.255 18.5736 52.5201 18.0825 51.7112 17.7475C50.9024 17.4124 50.0355 17.24 49.16 17.24ZM21.3467 14.84C21.3467 13.7791 21.7681 12.7617 22.5182 12.0116C23.2684 11.2614 24.2858 10.84 25.3467 10.84H38.68C39.7409 10.84 40.7583 11.2614 41.5084 12.0116C42.2586 12.7617 42.68 13.7791 42.68 14.84V17.24H21.3467V14.84ZM53.16 49.16C53.16 50.2209 52.7386 51.2383 51.9884 51.9884C51.2383 52.7386 50.2209 53.16 49.16 53.16H14.84C13.7791 53.16 12.7617 52.7386 12.0116 51.9884C11.2614 51.2383 10.84 50.2209 10.84 49.16V23.9067C10.84 22.8458 11.2614 21.8284 12.0116 21.0782C12.7617 20.3281 13.7791 19.9067 14.84 19.9067H49.16C50.2209 19.9067 51.2383 20.3281 51.9884 21.0782C52.7386 21.8284 53.16 22.8458 53.16 23.9067V49.16Z" fill="white"/>
<path d="M38.68 36.4665C38.68 36.8201 38.5395 37.1592 38.2895 37.4093C38.0394 37.6593 37.7003 37.7998 37.3467 37.7998H33.3467V41.7998C33.3467 42.1534 33.2062 42.4926 32.9561 42.7426C32.7061 42.9927 32.367 43.1331 32.0133 43.1331C31.6597 43.1331 31.3206 42.9927 31.0705 42.7426C30.8205 42.4926 30.68 42.1534 30.68 41.7998V37.7998H26.68C26.3264 37.7998 25.9872 37.6593 25.7372 37.4093C25.4871 37.1592 25.3467 36.8201 25.3467 36.4665C25.3467 36.1128 25.4871 35.7737 25.7372 35.5237C25.9872 35.2736 26.3264 35.1331 26.68 35.1331H30.68V31.1331C30.68 30.7795 30.8205 30.4404 31.0705 30.1903C31.3206 29.9403 31.6597 29.7998 32.0133 29.7998C32.3648 29.8066 32.7 29.9493 32.9486 30.1979C33.1972 30.4465 33.3398 30.7817 33.3467 31.1331V35.1331H37.3467C37.6981 35.14 38.0333 35.2826 38.2819 35.5312C38.5305 35.7798 38.6732 36.115 38.68 36.4665Z" fill="white"/>
</svg>
