<svg width="36" height="51" viewBox="0 0 36 51" fill="none" xmlns="http://www.w3.org/2000/svg">
<path d="M13.5958 26.2641C16.8056 26.2641 19.4077 28.8569 19.4077 32.0553C19.4077 32.5333 19.3431 32.9954 19.2335 33.44C19.6569 32.6913 19.9012 31.8295 19.9012 30.9092C19.9012 28.0561 17.5799 25.7432 14.7166 25.7432C13.7487 25.7432 12.8461 26.0124 12.0711 26.4722C12.5576 26.3408 13.0673 26.2641 13.5958 26.2641ZM2.63952 19.7445L23.3602 1.87164C28.3082 -2.3964 36 1.10607 36 7.62696V25.4998V43.373C36 49.8939 28.3082 53.3964 23.3602 49.1284L22.3887 48.2901C21.6264 47.6328 21.1856 46.6803 21.1782 45.6757C21.1752 44.9696 21.7993 44.4188 22.5029 44.522L27.353 45.1993C28.3302 45.3341 29.1842 44.7475 29.4897 43.9155C29.623 43.553 29.6543 43.1473 29.543 42.734C29.4774 42.4916 29.5793 42.2353 29.7949 42.1058L30.5469 41.6543C30.925 41.4273 31.1123 40.9821 31.0093 40.5541L30.8537 39.9061L31.4968 39.3816C31.7406 39.1824 31.8513 38.8636 31.7826 38.5572L31.5714 37.6107C31.5078 37.3256 31.6923 37.054 31.9819 37.0072L32.8298 36.8704C33.7014 36.7336 34.1932 35.7987 33.823 35.005L31.763 30.628C33.6678 23.5939 29.8855 16.1567 22.8891 13.6057C22.0705 13.3073 21.2415 13.0885 20.4116 12.9451C18.6651 12.6436 17.0631 13.959 16.9092 15.7185C16.6793 18.3465 16.687 21.1551 16.9302 24.1795C17.0242 24.2028 17.1198 24.2376 17.2154 24.2725C20.1124 25.3289 21.8856 28.095 21.8073 31.0102C21.7849 32.1383 21.4734 33.2932 20.852 34.3669C19.5447 36.6254 16.9958 37.9862 14.3854 37.8069C12.8471 37.701 11.4934 37.133 10.4366 36.2864C8.14429 34.4678 7.16508 31.3259 8.22692 28.4339C8.783 26.9204 9.80785 25.7143 11.0866 24.9189C10.8604 22.2862 10.8001 19.791 10.9013 17.4126C10.9533 16.1873 9.48433 15.4821 8.55976 16.2918C6.83124 17.8054 5.44722 19.7594 4.60028 22.0654C3.58709 24.8252 3.49013 27.6933 4.15082 30.3449C4.36806 31.217 3.32121 31.8434 2.63952 31.2555C-0.879841 28.2198 -0.879841 22.7802 2.63952 19.7445Z" fill="#155DFC"/>
</svg>
