<svg width="64" height="64" viewBox="0 0 64 64" fill="none" xmlns="http://www.w3.org/2000/svg">
<path d="M35.904 56.0002C31.8258 56.0002 28.352 54.5762 25.4826 51.7282C22.6133 48.8802 21.1786 45.4153 21.1786 41.3335V39.9548C17.8009 39.6402 14.9564 38.2179 12.6453 35.6882C10.3342 33.1619 9.17865 30.1548 9.17865 26.6668V12.0002H17.1786V9.3335H19.8453V17.3335H17.1786V14.6668H11.8453V26.6668C11.8453 29.6002 12.8898 32.1113 14.9787 34.2002C17.0675 36.2891 19.5787 37.3335 22.512 37.3335C25.4453 37.3335 27.9564 36.2891 30.0453 34.2002C32.1342 32.1113 33.1786 29.6002 33.1786 26.6668V14.6668H27.8453V17.3335H25.1787V9.3335H27.8453V12.0002H35.8453V26.6668C35.8453 30.1548 34.6898 33.1628 32.3787 35.6908C30.0675 38.2188 27.2231 39.6402 23.8453 39.9548V41.3335C23.8453 44.6668 25.0169 47.5006 27.36 49.8348C29.7066 52.1673 32.5538 53.3335 35.9013 53.3335C39.2346 53.3335 42.0675 52.1673 44.4 49.8348C46.7324 47.5024 47.8995 44.6686 47.9013 41.3335V37.1735C46.6533 36.8802 45.6231 36.2242 44.8107 35.2055C43.9982 34.1868 43.592 33.0153 43.592 31.6908C43.592 30.1264 44.1413 28.7948 45.24 27.6962C46.3386 26.5993 47.672 26.0508 49.24 26.0508C50.808 26.0508 52.1395 26.5993 53.2346 27.6962C54.3298 28.7931 54.8764 30.1255 54.8746 31.6935C54.8746 33.0162 54.4684 34.1868 53.656 35.2055C52.8453 36.2242 51.816 36.8811 50.568 37.1762V41.3335C50.568 45.4153 49.144 48.8802 46.296 51.7282C43.448 54.5762 39.984 56.0002 35.904 56.0002Z" fill="white"/>
</svg>
