<svg width="52" height="52" viewBox="0 0 52 52" fill="none" xmlns="http://www.w3.org/2000/svg">
<path d="M11.8429 6.23922C12.1341 4.77715 12.8405 3.43001 13.8777 2.35918C14.9149 1.28834 16.2388 0.539216 17.6909 0.201533C19.1429 -0.136151 20.6615 -0.0480729 22.0648 0.455215C23.468 0.958503 24.6964 1.85566 25.6029 3.03922C26.5093 1.85566 27.7377 0.958503 29.141 0.455215C30.5443 -0.0480729 32.0629 -0.136151 33.5149 0.201533C34.9669 0.539216 36.2908 1.28834 37.328 2.35918C38.3652 3.43001 39.0717 4.77715 39.3629 6.23922L39.7629 8.24562L41.0621 8.50483C43.0189 8.89734 44.7795 9.95521 46.0448 11.4987C47.3101 13.0422 48.0019 14.9762 48.0029 16.972V17.6056C48.0029 19.9288 47.0109 22.0216 45.4269 23.484C47.3616 24.4427 48.9498 25.9802 49.9707 27.8829C50.9916 29.7856 51.3945 31.959 51.1236 34.1012C50.8527 36.2434 49.9213 38.248 48.4588 39.8366C46.9963 41.4252 45.0754 42.5188 42.9629 42.9656L42.8445 43.5576C42.4758 45.4024 41.5685 47.0964 40.2372 48.4255C38.9059 49.7547 37.2105 50.6594 35.3652 51.0251C33.5199 51.3909 31.6075 51.2014 29.8699 50.4805C28.1323 49.7597 26.6474 48.5398 25.6029 46.9752C24.5584 48.5398 23.0735 49.7597 21.3359 50.4805C19.5982 51.2014 17.6859 51.3909 15.8406 51.0251C13.9953 50.6594 12.2998 49.7547 10.9686 48.4255C9.6373 47.0964 8.72997 45.4024 8.36128 43.5576L8.24288 42.9656C6.13035 42.5188 4.20943 41.4252 2.74696 39.8366C1.2845 38.248 0.353099 36.2434 0.0821582 34.1012C-0.188783 31.959 0.214186 29.7856 1.23508 27.8829C2.25598 25.9802 3.84412 24.4427 5.77888 23.484C4.96694 22.7351 4.31889 21.8262 3.87555 20.8145C3.4322 19.8028 3.20317 18.7102 3.20288 17.6056V16.972C3.20382 14.9762 3.89569 13.0422 5.16095 11.4987C6.42622 9.95521 8.18683 8.89734 10.1437 8.50483L11.4429 8.24883L11.8429 6.23922ZM40.0029 25.6056C39.5785 25.6056 39.1716 25.4371 38.8715 25.137C38.5715 24.8369 38.4029 24.43 38.4029 24.0056C38.4029 23.5813 38.5715 23.1743 38.8715 22.8743C39.1716 22.5742 39.5785 22.4056 40.0029 22.4056C41.2759 22.4056 42.4968 21.8999 43.397 20.9997C44.2972 20.0996 44.8029 18.8787 44.8029 17.6056V16.972C44.8029 14.38 42.9757 12.1528 40.4349 11.644L38.0893 11.1736C37.7798 11.1116 37.4955 10.9594 37.2723 10.7362C37.0491 10.513 36.8969 10.2287 36.8349 9.91923L36.2237 6.86643C36.0042 5.75584 35.379 4.76683 34.4698 4.09226C33.5607 3.4177 32.4329 3.10597 31.3064 3.21786C30.1799 3.32975 29.1354 3.85725 28.3768 4.69746C27.6181 5.53768 27.1996 6.63037 27.2029 7.76242V41.692C27.2055 43.2569 27.7892 44.7651 28.8408 45.924C29.8924 47.0829 31.3369 47.8099 32.8941 47.9642C34.4514 48.1185 36.0105 47.6889 37.269 46.7588C38.5275 45.8287 39.3957 44.4644 39.7053 42.9304L40.0349 41.292C40.0969 40.9825 40.2491 40.6983 40.4723 40.4751C40.6955 40.2519 40.9798 40.0997 41.2893 40.0376L42.2205 39.8488C43.9661 39.4943 45.518 38.5047 46.5759 37.0717C47.6338 35.6386 48.1225 33.8641 47.9473 32.0915C47.772 30.3189 46.9454 28.6744 45.6274 27.4763C44.3094 26.2781 42.5937 25.6116 40.8125 25.6056H40.0029ZM24.0029 38.4056V7.75602C24.0054 6.62425 23.5863 5.53212 22.8274 4.69251C22.0684 3.85291 21.024 3.32601 19.8978 3.21454C18.7715 3.10307 17.6441 3.41502 16.7353 4.08957C15.8265 4.76412 15.2015 5.75292 14.9821 6.86323L14.3741 9.91603C14.3118 10.226 14.1592 10.5105 13.9353 10.7338C13.7115 10.957 13.4266 11.109 13.1165 11.1704L10.7709 11.6408C9.53918 11.8884 8.43114 12.5547 7.63492 13.5265C6.83869 14.4983 6.40337 15.7157 6.40288 16.972V17.6056C6.40288 18.8787 6.90859 20.0996 7.80877 20.9997C8.70894 21.8999 9.92984 22.4056 11.2029 22.4056C11.6272 22.4056 12.0342 22.5742 12.3343 22.8743C12.6343 23.1743 12.8029 23.5813 12.8029 24.0056C12.8029 24.43 12.6343 24.8369 12.3343 25.137C12.0342 25.4371 11.6272 25.6056 11.2029 25.6056H10.3965C8.615 25.6108 6.89881 26.2768 5.5802 27.4747C4.26159 28.6726 3.43437 30.3171 3.25872 32.0899C3.08307 33.8627 3.57149 35.6377 4.6294 37.071C5.68731 38.5044 7.23945 39.4942 8.98528 39.8488L9.91648 40.0376C10.226 40.0997 10.5102 40.2519 10.7334 40.4751C10.9567 40.6983 11.1089 40.9825 11.1709 41.292L11.5005 42.9304C11.8101 44.4644 12.6783 45.8287 13.9368 46.7588C15.1953 47.6889 16.7544 48.1185 18.3116 47.9642C19.8689 47.8099 21.3134 47.0829 22.365 45.924C23.4165 44.7651 24.0002 43.2569 24.0029 41.692V38.4056Z" fill="white"/>
</svg>
